<?xml version="1.0" standalone="no"?>
<!DOCTYPE svg PUBLIC "-//W3C//DTD SVG 20010904//EN"
 "http://www.w3.org/TR/2001/REC-SVG-20010904/DTD/svg10.dtd">
<svg version="1.0" xmlns="http://www.w3.org/2000/svg"
 width="512.000000pt" height="512.000000pt" viewBox="0 0 512.000000 512.000000"
 preserveAspectRatio="xMidYMid meet">
<metadata>
Created by potrace 1.14, written by Peter Selinger 2001-2017
</metadata>
<g transform="translate(0.000000,512.000000) scale(0.100000,-0.100000)"
fill="#000000" stroke="none">
<path d="M2379 5116 c-2 -2 -35 -6 -74 -9 -73 -7 -217 -30 -295 -47 -25 -6
-54 -12 -65 -15 -43 -8 -195 -55 -285 -88 -218 -79 -498 -237 -685 -386 -329
-263 -585 -593 -754 -971 -61 -136 -135 -358 -156 -465 -25 -128 -47 -260 -53
-315 -9 -85 -8 -459 1 -530 54 -401 133 -646 321 -995 26 -48 173 -275 185
-285 4 -3 26 -30 51 -60 131 -160 239 -265 465 -449 27 -21 198 -131 255 -164
59 -33 214 -110 265 -132 22 -9 49 -21 60 -26 158 -68 447 -138 680 -166 127
-15 504 -8 615 11 14 3 42 7 64 11 273 40 581 150 856 303 61 34 212 130 235
149 6 5 53 43 105 85 236 189 474 468 612 718 102 185 213 444 234 544 2 10 8
33 14 51 6 18 12 41 14 51 2 10 11 53 20 94 40 197 50 299 51 515 0 187 -6
306 -20 369 -2 12 -7 35 -9 51 -20 129 -59 294 -77 328 -15 28 -70 57 -108 57
-45 0 -95 -33 -115 -75 -14 -30 -15 -44 -6 -96 6 -33 15 -71 20 -83 4 -12 15
-64 24 -116 9 -52 18 -105 21 -118 6 -33 19 -257 19 -327 -6 -899 -550 -1718
-1389 -2090 -140 -62 -372 -131 -505 -151 -19 -2 -46 -7 -60 -10 -14 -2 -35
-6 -48 -9 -118 -22 -485 -23 -600 0 -11 2 -37 6 -58 10 -78 12 -101 16 -189
37 -98 22 -287 86 -375 125 -113 51 -126 57 -152 75 -16 11 -28 17 -28 14 0
-13 -239 145 -322 212 -217 176 -365 338 -513 562 -178 271 -303 611 -350 950
-26 194 -22 497 10 660 3 14 10 52 16 85 38 218 137 483 259 699 49 88 106
169 225 325 20 26 107 122 136 150 254 246 514 418 799 526 93 35 231 81 270
89 131 28 301 56 375 62 101 8 314 8 390 -1 141 -16 207 -27 320 -52 319 -71
593 -199 878 -411 85 -63 89 -67 82 -96 -21 -96 -6 -186 42 -261 43 -66 126
-121 197 -131 22 -3 51 -8 64 -9 13 -2 52 5 87 16 118 36 207 146 220 271 12
122 -66 256 -179 307 -53 25 -157 35 -205 21 -31 -8 -41 -3 -123 65 -53 44
-168 123 -264 180 -310 187 -666 307 -1037 351 -53 6 -452 15 -458 10z"/>
<path d="M2251 3855 c-4 -5 -109 -275 -234 -600 -124 -324 -323 -841 -442
-1149 -118 -307 -215 -560 -215 -562 0 -2 125 -4 279 -4 l278 0 75 198 74 197
419 0 c364 1 420 3 418 15 -1 8 -22 71 -46 140 -25 69 -58 160 -72 202 l-27
78 -278 2 -278 3 38 105 c21 58 100 276 176 485 75 209 140 383 143 387 4 5
37 -79 75 -185 37 -105 96 -273 131 -372 35 -99 134 -380 220 -625 86 -245
171 -485 188 -535 l32 -90 282 -3 283 -2 -10 27 c-6 16 -15 37 -20 48 -5 11
-34 88 -65 170 -31 83 -77 202 -102 265 -24 63 -62 162 -85 220 -22 58 -55
143 -74 190 -34 87 -451 1170 -506 1315 -17 44 -33 82 -35 85 -9 10 -615 5
-622 -5z"/>
</g>
</svg>
